<svg xmlns="http://www.w3.org/2000/svg" viewBox="0 0 166.16 53"><defs><style>.cls-1{fill:#fff;}</style></defs><title>Asset 2</title><g id="Layer_2" data-name="Layer 2"><g id="Layer_1-2" data-name="Layer 1"><path class="cls-1" d="M73,26.64V28H65.38v5.2h6.43v1.36H65.38v5.53H73v1.36h-9.1V26.64Z"/><path class="cls-1" d="M76.11,41.43H74.55l4.89-7.54-4.73-7.25h1.66l4,6.08,3.94-6.08h1.56l-4.73,7.25L86,41.43H84.35l-4.13-6.35Z"/><path class="cls-1" d="M90.72,41.43a2.58,2.58,0,0,1-2.88-2.88v-9a2.58,2.58,0,0,1,2.88-2.88H95a2.58,2.58,0,0,1,2.88,2.88v1.56H96.39v-1.6A1.32,1.32,0,0,0,94.91,28H90.8a1.32,1.32,0,0,0-1.48,1.48V38.6a1.32,1.32,0,0,0,1.48,1.48h4.11a1.32,1.32,0,0,0,1.48-1.48V37h1.48v1.56A2.58,2.58,0,0,1,95,41.43Z"/><path class="cls-1" d="M102.67,26.64V40.08h7.11v1.36h-8.59V26.64Z"/><path class="cls-1" d="M122.21,38.56a2.58,2.58,0,0,1-2.88,2.88H115a2.58,2.58,0,0,1-2.88-2.88V26.64h1.48v12a1.32,1.32,0,0,0,1.48,1.48h4.15a1.32,1.32,0,0,0,1.48-1.48v-12h1.48Z"/><path class="cls-1" d="M133.61,29.4a1.32,1.32,0,0,0-1.48-1.48h-3.62A1.32,1.32,0,0,0,127,29.4v1.66c0,1.09.47,1.42,1.48,1.66l3.82.92c1.6.39,3,.78,3,2.94v2a2.58,2.58,0,0,1-2.88,2.88h-4a2.58,2.58,0,0,1-2.88-2.88V37.1H127v1.58a1.32,1.32,0,0,0,1.48,1.48h3.86a1.32,1.32,0,0,0,1.48-1.48V36.75c0-1.09-.47-1.42-1.48-1.66l-3.82-.92c-1.6-.39-3-.78-3-2.94V29.52a2.58,2.58,0,0,1,2.88-2.88h3.78a2.58,2.58,0,0,1,2.88,2.88v1.31h-1.48Z"/><path class="cls-1" d="M138.81,26.64h1.48V41.43h-1.48Z"/><path class="cls-1" d="M149.52,41.43h-1.68l-5-14.79h1.6l4.19,13.17,4.27-13.17h1.52Z"/><path class="cls-1" d="M166.16,26.64V28h-7.62v5.2H165v1.36h-6.43v5.53h7.62v1.36h-9.1V26.64Z"/><path class="cls-1" d="M67.76,50.74,66.34,48H64.56v2.72h-.66V44.18H67a1.14,1.14,0,0,1,1.27,1.28v1.28A1.14,1.14,0,0,1,67.07,48l1.42,2.72ZM67,47.41a.59.59,0,0,0,.66-.66V45.44a.59.59,0,0,0-.66-.66H64.56v2.63Z"/><path class="cls-1" d="M73.92,44.18v.6H70.54v2.3h2.85v.6H70.54v2.45h3.38v.6h-4V44.18Z"/><path class="cls-1" d="M80,44.18v6.56h-.67L75.9,45.08v5.66h-.6V44.18H76l3.37,5.57V44.18Z"/><path class="cls-1" d="M83.78,44.78v6h-.66v-6h-2v-.6h4.57v.6Z"/><path class="cls-1" d="M90.69,44.78v6H90v-6h-2v-.6h4.57v.6Z"/><path class="cls-1" d="M94.83,50.74a1.14,1.14,0,0,1-1.27-1.28v-4a1.14,1.14,0,0,1,1.27-1.28h2a1.14,1.14,0,0,1,1.28,1.28v4a1.14,1.14,0,0,1-1.28,1.28Zm-.62-1.26a.59.59,0,0,0,.66.66h1.94a.59.59,0,0,0,.66-.66v-4a.59.59,0,0,0-.66-.66H94.87a.59.59,0,0,0-.66.66Z"/><path class="cls-1" d="M103,50.74a1.14,1.14,0,0,1-1.27-1.28v-4A1.14,1.14,0,0,1,103,44.18h1.83a1.14,1.14,0,0,1,1.28,1.28v4a1.14,1.14,0,0,1-1.28,1.28Zm-.62-1.26a.59.59,0,0,0,.66.66h1.76a.59.59,0,0,0,.66-.66v-4a.59.59,0,0,0-.66-.66h-1.76a.59.59,0,0,0-.66.66Z"/><path class="cls-1" d="M112.3,50.74l-1.38-5.53-1.38,5.53h-.7L107,44.18h.71l1.45,5.72,1.44-5.72h.6l1.44,5.72,1.45-5.72h.69L113,50.74Z"/><path class="cls-1" d="M120.65,44.18v6.56H120l-3.42-5.66v5.66h-.6V44.18h.73L120,49.75V44.18Z"/><path class="cls-1" d="M127.7,44.18A1.14,1.14,0,0,1,129,45.45v1.44a1.14,1.14,0,0,1-1.27,1.28h-2.46v2.57h-.66V44.18Zm0,3.39a.59.59,0,0,0,.66-.66V45.44a.59.59,0,0,0-.66-.66h-2.42v2.79Z"/><path class="cls-1" d="M134.2,50.74,132.78,48H131v2.72h-.66V44.18h3.11a1.14,1.14,0,0,1,1.27,1.28v1.28A1.14,1.14,0,0,1,133.51,48l1.42,2.72Zm-.78-3.32a.59.59,0,0,0,.66-.66V45.44a.59.59,0,0,0-.66-.66H131v2.63Z"/><path class="cls-1" d="M137.45,50.74a1.14,1.14,0,0,1-1.27-1.28v-4a1.14,1.14,0,0,1,1.27-1.28h2a1.14,1.14,0,0,1,1.27,1.28v4a1.14,1.14,0,0,1-1.27,1.28Zm-.62-1.26a.59.59,0,0,0,.66.66h1.94a.59.59,0,0,0,.66-.66v-4a.59.59,0,0,0-.66-.66h-1.94a.59.59,0,0,0-.66.66Z"/><path class="cls-1" d="M146,45.44a.59.59,0,0,0-.66-.66h-1.89a.59.59,0,0,0-.66.66v4a.59.59,0,0,0,.66.66h1.89a.59.59,0,0,0,.66-.66V48h-1.67v-.6h2.32v2.09a1.14,1.14,0,0,1-1.28,1.28h-2a1.14,1.14,0,0,1-1.27-1.28v-4a1.14,1.14,0,0,1,1.27-1.28h2a1.14,1.14,0,0,1,1.28,1.28v.6H146Z"/><path class="cls-1" d="M152.11,50.74,150.69,48h-1.78v2.72h-.66V44.18h3.11a1.14,1.14,0,0,1,1.27,1.28v1.28A1.14,1.14,0,0,1,151.42,48l1.42,2.72Zm-.78-3.32a.59.59,0,0,0,.66-.66V45.44a.59.59,0,0,0-.66-.66h-2.41v2.63Z"/><path class="cls-1" d="M155,48.82l-.66,1.91h-.67L156,44.18h.75l2.34,6.56h-.71l-.67-1.91Zm1.36-3.93-1.15,3.32h2.3Z"/><path class="cls-1" d="M166.11,50.74h-.64V45.15l-2,4.57h-.59l-2-4.57v5.58h-.62V44.18H161l2.12,4.75,2.13-4.75h.82Z"/><path class="cls-1" d="M14.17,30.61H7.22v6.74h6.95a.62.62,0,0,0,.69-.69V31.3A.62.62,0,0,0,14.17,30.61Z"/><rect class="cls-1" x="43.59" y="30.67" width="8.19" height="15.76" rx="0.69" ry="0.69"/><path class="cls-1" d="M29.5,0,0,16V53H59V16ZM15.24,51l-4-9.23h-4V51h-5V26.11H15c3.15,0,4.84,1.69,4.84,4.84v6c0,2.59-1.18,4.22-3.35,4.7L20.6,51Zm6.27,0-1.06-2.4V42.5c0-2.77,2-3.94,5-5l5.95-2.07c.9-.31,1.38-.48,1.38-1.38v-2.7a.62.62,0,0,0-.69-.69H26.26a.62.62,0,0,0-.69.69v2.28H20.74V31c0-.06,0-.12,0-.18.07-3,1.75-4.66,4.83-4.66H32.9c3.15,0,4.84,1.69,4.84,4.84v4.22c0,2.77-2,3.94-5,5l-5.95,2.07c-.9.31-1.38.48-1.38,1.38v2.83H37.86A5.11,5.11,0,0,0,40.13,51Zm35.25-4.84c0,3.15-1.69,4.84-4.84,4.84H43.45c-3.15,0-4.84-1.69-4.84-4.84V31c0-3.15,1.69-4.84,4.84-4.84h8.47c3.15,0,4.84,1.69,4.84,4.84Z"/></g></g></svg>